<svg preserveAspectRatio="none" width="100%" height="100%" overflow="visible" style="display: block;" viewBox="0 0 12.54 12.54" fill="none" xmlns="http://www.w3.org/2000/svg">
<path id="Vector" d="M4.0736 4.37085C3.96913 4.66782 4.12519 4.99324 4.42215 5.0977C4.71912 5.20216 5.04454 5.04611 5.149 4.74915L4.6113 4.56L4.0736 4.37085ZM5.358 3.6532L5.6468 4.14463L5.64681 4.14462L5.358 3.6532ZM6.5135 3.44206L6.60987 2.88027L6.60986 2.88027L6.5135 3.44206ZM7.53261 4.02689L7.9691 3.66032L7.96905 3.66027L7.53261 4.02689ZM7.9344 5.13114L7.3644 5.13025V5.13114H7.9344ZM6.04415 6.30039C5.7455 6.39994 5.5841 6.72274 5.68365 7.02139C5.7832 7.32004 6.106 7.48144 6.40465 7.38189L6.2244 6.84114L6.04415 6.30039ZM6.27 8.55C5.9552 8.55 5.7 8.8052 5.7 9.12C5.7 9.4348 5.9552 9.69 6.27 9.69V9.12V8.55ZM6.2757 9.69C6.5905 9.69 6.8457 9.4348 6.8457 9.12C6.8457 8.8052 6.5905 8.55 6.2757 8.55V9.12V9.69ZM11.97 6.27H11.4C11.4 9.10322 9.10322 11.4 6.27 11.4V11.97V12.54C9.73283 12.54 12.54 9.73283 12.54 6.27H11.97ZM6.27 11.97V11.4C3.43678 11.4 1.14 9.10322 1.14 6.27H0.57H0C0 9.73283 2.80717 12.54 6.27 12.54V11.97ZM0.57 6.27H1.14C1.14 3.43678 3.43678 1.14 6.27 1.14V0.57V0C2.80717 0 0 2.80717 0 6.27H0.57ZM6.27 0.57V1.14C9.10322 1.14 11.4 3.43678 11.4 6.27H11.97H12.54C12.54 2.80717 9.73283 0 6.27 0V0.57ZM4.6113 4.56L5.149 4.74915C5.23834 4.49519 5.41467 4.28104 5.6468 4.14463L5.358 3.6532L5.0692 3.16178C4.60496 3.4346 4.25228 3.86291 4.0736 4.37085L4.6113 4.56ZM5.358 3.6532L5.64681 4.14462C5.87891 4.00821 6.15179 3.95835 6.41715 4.00386L6.5135 3.44206L6.60986 2.88027C6.07916 2.78924 5.5334 2.88897 5.06919 3.16179L5.358 3.6532ZM6.5135 3.44206L6.41714 4.00386C6.68241 4.04936 6.92286 4.18721 7.09616 4.39352L7.53261 4.02689L7.96905 3.66027C7.62217 3.24732 7.14066 2.97132 6.60987 2.88027L6.5135 3.44206ZM7.53261 4.02689L7.09612 4.39346C7.26998 4.60049 7.36482 4.86158 7.3644 5.13025L7.9344 5.13114L8.5044 5.13203C8.50524 4.59374 8.3153 4.07255 7.9691 3.66032L7.53261 4.02689ZM7.9344 5.13114H7.3644C7.3644 5.39855 7.15629 5.67732 6.76322 5.93937C6.58403 6.05883 6.40078 6.15086 6.26009 6.21339C6.19055 6.2443 6.13339 6.26712 6.09496 6.28176C6.07579 6.28907 6.06142 6.29428 6.05265 6.2974C6.04827 6.29895 6.0453 6.29998 6.04385 6.30048C6.04312 6.30073 6.04277 6.30085 6.04282 6.30084C6.04284 6.30083 6.04296 6.30079 6.04319 6.30071C6.0433 6.30068 6.04343 6.30063 6.04359 6.30058C6.04367 6.30055 6.04381 6.3005 6.04385 6.30049C6.044 6.30044 6.04415 6.30039 6.2244 6.84114C6.40465 7.38189 6.40482 7.38183 6.40499 7.38178C6.40505 7.38175 6.40523 7.3817 6.40536 7.38165C6.40563 7.38156 6.40592 7.38146 6.40624 7.38136C6.40687 7.38114 6.40761 7.38089 6.40846 7.38061C6.41015 7.38004 6.41225 7.37932 6.41476 7.37846C6.41978 7.37673 6.42641 7.37442 6.43456 7.37152C6.45084 7.36573 6.47321 7.35759 6.50079 7.34708C6.55587 7.3261 6.63231 7.29548 6.72309 7.25514C6.90302 7.17517 7.14727 7.05345 7.39558 6.88791C7.85751 6.57996 8.5044 6.00373 8.5044 5.13114H7.9344ZM6.27 9.12V9.69H6.2757V9.12V8.55H6.27V9.12Z" fill="var(--stroke-0, #070707)"/>
</svg>
