<svg preserveAspectRatio="none" width="100%" height="100%" overflow="visible" style="display: block;" viewBox="0 0 24 24" fill="none" xmlns="http://www.w3.org/2000/svg">
<g id="Frame 109">
<rect x="0.2" y="0.2" width="23.6" height="23.6" rx="11.8" fill="var(--fill-0, white)"/>
<rect x="0.2" y="0.2" width="23.6" height="23.6" rx="11.8" stroke="var(--stroke-0, #EEEEF0)" stroke-width="0.4"/>
<path id="Vector" fill-rule="evenodd" clip-rule="evenodd" d="M11.4029 7.13279C11.4893 7.21792 11.5378 7.33333 11.5378 7.45365C11.5378 7.57397 11.4893 7.68938 11.4029 7.77451L7.57503 11.5401H17.5384C17.6609 11.5401 17.7783 11.5879 17.8648 11.6731C17.9514 11.7582 18 11.8737 18 11.9941C18 12.1146 17.9514 12.23 17.8648 12.3152C17.7783 12.4003 17.6609 12.4482 17.5384 12.4482H7.57503L11.4029 16.2138C11.4482 16.2553 11.4846 16.3055 11.5098 16.3612C11.535 16.4169 11.5486 16.477 11.5497 16.5379C11.5508 16.5989 11.5394 16.6595 11.5162 16.716C11.493 16.7725 11.4584 16.8239 11.4146 16.867C11.3707 16.9101 11.3185 16.9441 11.2611 16.967C11.2036 16.9898 11.142 17.001 11.0801 16.9999C11.0181 16.9989 10.957 16.9855 10.9004 16.9607C10.8437 16.9359 10.7928 16.9001 10.7505 16.8555L6.13498 12.315C6.04855 12.2299 6 12.1145 6 11.9941C6 11.8738 6.04855 11.7584 6.13498 11.6733L10.7505 7.13279C10.8371 7.04776 10.9544 7 11.0767 7C11.199 7 11.3163 7.04776 11.4029 7.13279Z" fill="var(--fill-0, black)"/>
</g>
</svg>
