<svg preserveAspectRatio="none" width="100%" height="100%" overflow="visible" style="display: block;" viewBox="0 0 17 17" fill="none" xmlns="http://www.w3.org/2000/svg">
<g id="Frame 153">
<rect x="0.35" y="0.35" width="16.3" height="16.3" rx="8.15" fill="var(--fill-0, white)"/>
<rect x="0.35" y="0.35" width="16.3" height="16.3" rx="8.15" stroke="var(--stroke-0, #EFEFEF)" stroke-width="0.7"/>
<path id="Vector" d="M10.0255 5.00604L10.6362 4.16176C10.7636 3.98585 10.961 3.85917 11.1851 3.80961C11.4093 3.76005 11.6417 3.79166 11.8313 3.89749C12.021 4.00332 12.1523 4.17469 12.1963 4.37392C12.2404 4.57314 12.1936 4.7839 12.0663 4.95981L6.8637 12.1475C6.67225 12.4119 6.41285 12.6324 6.10892 12.7892L4.96979 13.3773L5.09248 12.222C5.12514 11.9138 5.2424 11.6139 5.43367 11.3495L10.0255 5.00604ZM10.0255 5.00604L11.448 5.79988" stroke="var(--stroke-0, #B1B1B1)" stroke-width="0.7" stroke-linecap="round" stroke-linejoin="round"/>
</g>
</svg>
