<svg preserveAspectRatio="none" width="100%" height="100%" overflow="visible" style="display: block;" viewBox="0 0 11.286 11.286" fill="none" xmlns="http://www.w3.org/2000/svg">
<path id="Vector" d="M10.1135 3.12474C10.5472 3.8931 10.7744 4.7607 10.773 5.643C10.773 6.08644 10.7166 6.51681 10.6111 6.92721C10.3261 8.02804 9.68353 9.00308 8.78427 9.69912C7.88509 10.3952 6.78015 10.7729 5.643 10.773M1.17249 3.12474C0.752402 3.86859 0.513002 4.72815 0.513002 5.643C0.512619 6.07618 0.567011 6.50764 0.674884 6.92721C0.959928 8.02804 1.6025 9.00308 2.50172 9.69912C3.40093 10.3952 4.50586 10.7729 5.643 10.773M5.643 10.773C7.05943 10.773 8.208 8.47592 8.208 5.643C8.208 2.8101 7.05943 0.513 5.643 0.513M5.643 10.773C4.22655 10.773 3.078 8.47592 3.078 5.643C3.078 2.8101 4.22655 0.513 5.643 0.513M10.6111 6.92721C9.09105 7.7699 7.38105 8.21074 5.643 8.208C3.84066 8.208 2.14719 7.74343 0.674884 6.92721M5.643 0.513C6.55286 0.512624 7.44644 0.754316 8.23208 1.21328C9.01765 1.67225 9.66704 2.33197 10.1135 3.12474M5.643 0.513C4.73315 0.512624 3.83957 0.754316 3.05395 1.21328C2.26834 1.67225 1.61898 2.33197 1.17249 3.12474M10.1135 3.12474C8.87244 4.19972 7.28488 4.79036 5.643 4.788C3.93414 4.788 2.3712 4.161 1.17249 3.12474" stroke="var(--stroke-0, #070707)" stroke-width="1.026" stroke-linecap="round" stroke-linejoin="round"/>
</svg>
