<svg preserveAspectRatio="none" width="100%" height="100%" overflow="visible" style="display: block;" viewBox="0 0 12.0002 14" fill="none" xmlns="http://www.w3.org/2000/svg">
<g id="Vector">
<path id="Vector_2" d="M7.82675 5.00023L7.59608 11.0001M4.40408 11.0001L4.17342 5.00023M8.50008 2.59562C9.27593 2.65569 10.0493 2.74397 10.8187 2.86028C11.0467 2.89495 11.2734 2.93162 11.5001 2.97095M10.8187 2.86028L10.1067 12.1154C10.0777 12.4922 9.90746 12.8441 9.6301 13.1008C9.35273 13.3576 8.98869 13.5001 8.61075 13.5H3.38942C3.01148 13.5001 2.64743 13.3576 2.37007 13.1008C2.09271 12.8441 1.92247 12.4922 1.89342 12.1154L1.18142 2.86028M1.18142 2.86028C0.953415 2.89428 0.726749 2.93095 0.500082 2.97028M1.18142 2.86028C1.95084 2.74397 2.72424 2.65569 3.50008 2.59562M8.50008 2.59562V1.98497C8.50008 1.19833 7.89342 0.542346 7.10675 0.51768C6.36916 0.494107 5.63101 0.494107 4.89342 0.51768C4.10675 0.542346 3.50008 1.199 3.50008 1.98497V2.59562M8.50008 2.59562C6.8359 2.46701 5.16427 2.46701 3.50008 2.59562" stroke="var(--stroke-0, black)" stroke-linecap="round" stroke-linejoin="round"/>
</g>
</svg>
