<svg preserveAspectRatio="none" width="100%" height="100%" overflow="visible" style="display: block;" viewBox="0 0 8.33625 13.5019" fill="none" xmlns="http://www.w3.org/2000/svg">
<path id="Vector" d="M0.605625 3.45562V9.33375C0.605625 10.2786 0.980959 11.1847 1.64906 11.8528C2.31716 12.5209 3.22329 12.8962 4.16812 12.8962C5.11296 12.8962 6.01909 12.5209 6.68719 11.8528C7.35529 11.1847 7.73062 10.2786 7.73062 9.33375V2.92125C7.73062 2.30711 7.48666 1.71812 7.05239 1.28386C6.61813 0.849592 6.02914 0.605625 5.415 0.605625C4.80086 0.605625 4.21187 0.849592 3.77761 1.28386C3.34334 1.71812 3.09937 2.30711 3.09937 2.92125V9.15562C3.09937 9.43907 3.21197 9.71092 3.4124 9.91134C3.61283 10.1118 3.88467 10.2244 4.16812 10.2244C4.45158 10.2244 4.72342 10.1118 4.92385 9.91134C5.12427 9.71092 5.23687 9.43907 5.23687 9.15562V3.81187" stroke="var(--stroke-0, #111111)" stroke-width="1.21125" stroke-linecap="round" stroke-linejoin="round"/>
</svg>
