<svg preserveAspectRatio="none" width="100%" height="100%" overflow="visible" style="display: block;" viewBox="0 0 13.1125 8.8375" fill="none" xmlns="http://www.w3.org/2000/svg">
<path id="Vector" d="M1.5 7.92013L4.9175 4.27625L6.77 6.12875L8.0525 4.84625L11.5 7.92013M9.54875 2.6375H9.55625M1.925 0.5H11.1875C11.5654 0.5 11.9279 0.650133 12.1951 0.917373C12.4624 1.18461 12.6125 1.54707 12.6125 1.925V6.9125C12.6125 7.29043 12.4624 7.65289 12.1951 7.92013C11.9279 8.18737 11.5654 8.3375 11.1875 8.3375H1.925C1.54707 8.3375 1.18461 8.18737 0.917373 7.92013C0.650133 7.65289 0.5 7.29043 0.5 6.9125V1.925C0.5 1.54707 0.650133 1.18461 0.917373 0.917373C1.18461 0.650133 1.54707 0.5 1.925 0.5Z" stroke="var(--stroke-0, #111111)" stroke-linecap="round" stroke-linejoin="round"/>
</svg>
