<svg preserveAspectRatio="none" width="100%" height="100%" overflow="visible" style="display: block;" viewBox="0 0 72 83" fill="none" xmlns="http://www.w3.org/2000/svg">
<g id="Vector">
<path id="Vector_2" fill-rule="evenodd" clip-rule="evenodd" d="M54 11.77V12.6672C59.1959 13.1367 64.3708 13.8118 69.512 14.6908C69.9002 14.7573 70.2713 14.8986 70.6042 15.1068C70.9371 15.3149 71.2253 15.5858 71.4522 15.904C71.6792 16.2222 71.8405 16.5815 71.9269 16.9613C72.0133 17.3411 72.0232 17.734 71.956 18.1176C71.8887 18.5011 71.7457 18.8678 71.535 19.1968C71.3244 19.5257 71.0502 19.8105 70.7281 20.0347C70.4061 20.259 70.0425 20.4183 69.6582 20.5037C69.2738 20.5891 68.8762 20.5989 68.488 20.5325L67.652 20.3941L63.632 72.0519C63.4002 75.0303 62.0392 77.8126 59.8211 79.8424C57.603 81.8721 54.6912 82.9998 51.668 83H20.336C17.3128 82.9998 14.401 81.8721 12.1829 79.8424C9.96481 77.8126 8.6038 75.0303 8.37202 72.0519L4.34802 20.3941L3.51202 20.5325C3.12384 20.5989 2.72621 20.5891 2.34184 20.5037C1.95747 20.4183 1.59389 20.259 1.27186 20.0347C0.62148 19.5818 0.179817 18.8922 0.044026 18.1176C-0.0917647 17.3429 0.0894408 16.5467 0.547779 15.904C1.00612 15.2614 1.70405 14.825 2.48802 14.6908C7.62909 13.8107 12.8039 13.1356 18 12.6672V11.77C18 5.58848 22.852 0.308081 29.264 0.106509C33.7549 -0.0355029 38.2492 -0.0355029 42.74 0.106509C49.152 0.308081 54 5.58848 54 11.77ZM29.456 6.03114C33.8189 5.89327 38.1851 5.89327 42.548 6.03114C45.56 6.126 48 8.63182 48 11.77V12.2166C40.0074 11.737 31.9926 11.737 24 12.2166V11.77C24 8.63182 26.436 6.126 29.456 6.03114ZM28.036 29.5281C28.0208 29.1388 27.9281 28.7563 27.7633 28.4024C27.5984 28.0486 27.3647 27.7302 27.0753 27.4656C26.786 27.201 26.4467 26.9953 26.0769 26.8602C25.7071 26.7251 25.314 26.6634 24.92 26.6784C24.526 26.6935 24.1389 26.7851 23.7808 26.9479C23.4226 27.1108 23.1005 27.3418 22.8327 27.6277C22.5649 27.9136 22.3567 28.2488 22.22 28.6142C22.0833 28.9796 22.0208 29.3681 22.036 29.7573L23.424 65.3289C23.4548 66.1145 23.8001 66.8559 24.3841 67.39C24.6733 67.6544 25.0123 67.86 25.3819 67.9949C25.7515 68.1299 26.1443 68.1916 26.538 68.1766C26.9317 68.1615 27.3186 68.07 27.6765 67.9072C28.0344 67.7444 28.3563 67.5136 28.6239 67.2279C28.8916 66.9421 29.0996 66.6071 29.2362 66.242C29.3728 65.8768 29.4352 65.4886 29.42 65.0996L28.036 29.5281ZM49.956 29.7573C49.9853 29.3606 49.9335 28.9621 49.8037 28.5855C49.6739 28.2089 49.4687 27.8621 49.2003 27.5655C48.9319 27.269 48.6059 27.0288 48.2416 26.8594C47.8774 26.69 47.4823 26.5947 47.08 26.5793C46.6777 26.5639 46.2764 26.6287 45.9 26.7698C45.5236 26.9109 45.1797 27.1254 44.8889 27.4006C44.5982 27.6757 44.3664 28.0059 44.2075 28.3714C44.0486 28.7369 43.9658 29.1303 43.964 29.5281L42.576 65.0996C42.5452 65.8858 42.8318 66.6519 43.3727 67.2293C43.9135 67.8067 44.6643 68.1481 45.46 68.1785C46.2556 68.2089 47.0309 67.9258 47.6153 67.3914C48.1997 66.8569 48.5452 66.115 48.576 65.3289L49.956 29.7573Z" fill="var(--fill-0, #DFE0E3)"/>
</g>
</svg>
