<svg preserveAspectRatio="none" width="100%" height="100%" overflow="visible" style="display: block;" viewBox="0 0 9 11" fill="none" xmlns="http://www.w3.org/2000/svg">
<g id="Vector">
<path d="M5.44127 1.28635C5.73306 1.01003 6.12883 0.85479 6.54146 0.85479C6.95413 0.85479 7.34987 1.01003 7.64165 1.28635C7.93344 1.56267 8.09738 1.93745 8.09738 2.32823C8.09738 2.71901 7.93344 3.09379 7.64165 3.37011L6.87936 4.09142C6.79439 4.1748 6.7474 4.28647 6.74852 4.40236C6.74964 4.51824 6.79877 4.62906 6.88536 4.71097C6.97192 4.79289 7.08901 4.83932 7.21138 4.84027C7.33375 4.84121 7.45161 4.79663 7.5396 4.71607L8.30127 3.99477C8.7547 3.5502 9.00557 2.95478 8.99991 2.33672C8.99424 1.71866 8.73245 1.12745 8.27097 0.690408C7.80945 0.253363 7.18515 0.0054598 6.5325 8.91079e-05C5.87985 -0.00528156 5.2511 0.232311 4.78165 0.661692L2.91481 2.42959C2.67234 2.65924 2.48257 2.93385 2.35746 3.23622C2.23232 3.53856 2.17451 3.86215 2.18767 4.18668C2.2008 4.51117 2.28462 4.82963 2.43385 5.12201C2.58307 5.41442 2.79449 5.67445 3.05482 5.88583C3.14897 5.96029 3.27032 5.99662 3.39256 5.98701C3.51481 5.97741 3.62813 5.9226 3.70803 5.83444C3.78793 5.74631 3.828 5.63193 3.81954 5.51605C3.81105 5.40016 3.75476 5.29208 3.66279 5.21521C3.49988 5.08315 3.36758 4.92062 3.27414 4.73785C3.18074 4.55505 3.12822 4.35595 3.11991 4.15303C3.11163 3.9501 3.14773 3.74774 3.22592 3.55866C3.30414 3.36958 3.42281 3.19783 3.57443 3.05425L5.44127 1.28635Z" fill="var(--fill-0, #5260D2)"/>
<path d="M6.00635 5.05621C5.9122 4.98178 5.79085 4.94542 5.66861 4.95506C5.54636 4.96466 5.43304 5.01947 5.35314 5.1076C5.27324 5.19573 5.23316 5.31014 5.24166 5.42603C5.25012 5.54191 5.30641 5.64996 5.39838 5.72683C5.56129 5.8589 5.69359 6.02142 5.78703 6.20422C5.88046 6.38702 5.93295 6.58612 5.94126 6.78905C5.94957 6.99197 5.91347 7.19431 5.83525 7.38341C5.75703 7.57249 5.63839 7.74421 5.48674 7.88779L3.6199 9.65569C3.32811 9.93204 2.93236 10.0873 2.51971 10.0873C2.10706 10.0873 1.71131 9.93204 1.41952 9.65569C1.12773 9.37937 0.963804 9.0046 0.963804 8.61381C0.963804 8.22305 1.12773 7.84828 1.41952 7.57193L2.18181 6.85063C2.26679 6.76724 2.31377 6.65557 2.31265 6.53968C2.31153 6.42383 2.26239 6.31298 2.17582 6.23107C2.08925 6.14915 1.97217 6.10275 1.8498 6.10178C1.72742 6.10083 1.60955 6.14544 1.52157 6.22597L0.759902 6.94727C0.522162 7.16472 0.332538 7.42484 0.202084 7.71242C0.0716317 8 0.00296597 8.30932 9.39814e-05 8.6223C-0.00277801 8.9353 0.060201 9.24569 0.185356 9.53539C0.310512 9.82508 0.495336 10.0883 0.729049 10.3096C0.962759 10.5309 1.24067 10.7059 1.54658 10.8244C1.85248 10.943 2.18025 11.0026 2.51075 10.9999C2.84126 10.9972 3.16788 10.9321 3.47155 10.8086C3.77525 10.6851 4.0499 10.5055 4.27952 10.2803L6.14636 8.51245C6.38883 8.28283 6.5786 8.00822 6.70371 7.70585C6.82885 7.40348 6.88666 7.07989 6.8735 6.7554C6.86037 6.43087 6.77655 6.11244 6.62732 5.82003C6.4781 5.52765 6.26668 5.26759 6.00635 5.05621Z" fill="var(--fill-0, #5260D2)"/>
</g>
</svg>
