<svg preserveAspectRatio="none" width="100%" height="100%" overflow="visible" style="display: block;" viewBox="0 0 13.2369 13.2369" fill="none" xmlns="http://www.w3.org/2000/svg">
<path id="Star 5" d="M6.14971 0.826465C6.31082 0.39125 6.9261 0.391254 7.08721 0.826465L8.28545 4.06475C8.43738 4.47532 8.76159 4.79954 9.17217 4.95147L12.4104 6.14971C12.8457 6.31082 12.8457 6.9261 12.4104 7.08721L9.17217 8.28545C8.76159 8.43738 8.43738 8.76159 8.28545 9.17217L7.08721 12.4104C6.92609 12.8457 6.31082 12.8457 6.14971 12.4104L4.95147 9.17217C4.79954 8.76159 4.47533 8.43738 4.06475 8.28545L0.826465 7.08721C0.39125 6.92609 0.391254 6.31082 0.826465 6.14971L4.06475 4.95147C4.47532 4.79954 4.79954 4.47533 4.95147 4.06475L6.14971 0.826465Z" fill="var(--fill-0, #D9D9D9)" stroke="var(--stroke-0, #E8E8EF)"/>
</svg>
