<svg preserveAspectRatio="none" width="100%" height="100%" overflow="visible" style="display: block;" viewBox="0 0 11 14" fill="none" xmlns="http://www.w3.org/2000/svg">
<g id="Vector">
<path d="M8.8 14H2.2C1.61652 14 1.05695 13.7788 0.644365 13.3849C0.231785 12.9911 0 12.457 0 11.9V2.1C0 1.54305 0.231785 1.0089 0.644365 0.615076C1.05695 0.221249 1.61652 0 2.2 0H7.03267C7.22505 0.000773235 7.40941 0.0736791 7.546 0.203L10.7873 3.297C10.9228 3.42738 10.9992 3.60336 11 3.787V11.9C11 12.457 10.7682 12.9911 10.3556 13.3849C9.94306 13.7788 9.38348 14 8.8 14Z" fill="#F44336"/>
<path d="M10.4867 4.018H7.84667C7.55493 4.018 7.27514 3.90738 7.06885 3.71046C6.86256 3.51355 6.74667 3.24648 6.74667 2.968V0.448C6.74635 0.371632 6.76983 0.296898 6.81413 0.233303C6.85842 0.169708 6.92153 0.120125 6.99543 0.0908588C7.06933 0.0615928 7.15068 0.0539662 7.22913 0.0689489C7.30758 0.0839317 7.37959 0.120847 7.436 0.175L10.7727 3.36C10.8294 3.41385 10.8681 3.48259 10.8838 3.55747C10.8995 3.63236 10.8915 3.71 10.8608 3.78054C10.8302 3.85108 10.7782 3.91132 10.7116 3.95361C10.645 3.99589 10.5667 4.0183 10.4867 4.018Z" fill="#FF8A80"/>
<path d="M2.486 11.991C2.43517 11.998 2.38332 11.9937 2.33458 11.9782C2.28584 11.9628 2.24155 11.9367 2.20523 11.902C2.16891 11.8673 2.14157 11.8251 2.12539 11.7785C2.1092 11.732 2.10462 11.6825 2.112 11.634V9.583C2.10488 9.53515 2.10938 9.48637 2.12518 9.44044C2.14097 9.39452 2.16762 9.35268 2.20307 9.31816C2.23852 9.28365 2.28182 9.25738 2.32961 9.2414C2.3774 9.22542 2.4284 9.22015 2.47867 9.226C2.52377 9.22116 2.56944 9.22524 2.61281 9.23801C2.65619 9.25078 2.69633 9.27195 2.73075 9.3002C2.76516 9.32845 2.7931 9.36317 2.81281 9.40219C2.83253 9.44122 2.8436 9.48371 2.84533 9.527C2.90446 9.42871 2.99416 9.35043 3.102 9.303C3.21745 9.24585 3.34597 9.21698 3.476 9.219C3.64192 9.2168 3.80494 9.26056 3.94533 9.345C4.08368 9.43316 4.19302 9.55694 4.26067 9.702C4.33833 9.87571 4.37836 10.0626 4.37836 10.2515C4.37836 10.4404 4.33833 10.6273 4.26067 10.801C4.16068 10.9955 3.98584 11.1456 3.77267 11.2199C3.55949 11.2943 3.32446 11.2871 3.11667 11.2C3.01269 11.1536 2.92394 11.081 2.86 10.99V11.627C2.86424 11.6752 2.85795 11.7238 2.84154 11.7695C2.82513 11.8153 2.79896 11.8574 2.76467 11.893C2.72745 11.9263 2.6836 11.9521 2.63574 11.969C2.58787 11.9858 2.53695 11.9933 2.486 11.991ZM3.21933 10.759C3.27275 10.7596 3.32561 10.7485 3.37389 10.7267C3.42217 10.7048 3.46461 10.6728 3.498 10.633C3.57974 10.5207 3.61621 10.384 3.60067 10.248C3.61554 10.1121 3.57914 9.97558 3.498 9.863C3.46323 9.82522 3.42035 9.79504 3.37226 9.7745C3.32417 9.75397 3.27201 9.74356 3.21933 9.744C3.1655 9.74301 3.11207 9.75314 3.06271 9.77367C3.01335 9.79421 2.96922 9.82468 2.93333 9.863C2.85601 9.9772 2.81996 10.1124 2.83067 10.248C2.81884 10.3837 2.85499 10.5192 2.93333 10.633C2.96966 10.6768 3.01684 10.7112 3.07062 10.7332C3.1244 10.7552 3.18307 10.7641 3.24133 10.759H3.21933Z" fill="var(--fill-0, #FFEBEE)"/>
<path d="M5.62467 11.277C5.4616 11.2829 5.30051 11.2414 5.16267 11.158C5.02215 11.0703 4.91033 10.9465 4.84 10.801C4.76234 10.6273 4.7223 10.4404 4.7223 10.2515C4.7223 10.0626 4.76234 9.87571 4.84 9.702C4.91033 9.55645 5.02215 9.43274 5.16267 9.345C5.29988 9.25958 5.46089 9.21567 5.62467 9.219C5.75226 9.21785 5.87819 9.2467 5.99133 9.303C6.09267 9.34688 6.1809 9.41426 6.248 9.499V8.736C6.24062 8.68748 6.2452 8.63799 6.26139 8.59146C6.27757 8.54494 6.30491 8.50266 6.34123 8.46799C6.37755 8.43333 6.42184 8.40723 6.47058 8.39178C6.51933 8.37633 6.57117 8.37195 6.622 8.379C6.67135 8.37552 6.72093 8.3818 6.76762 8.39746C6.81431 8.41312 6.85711 8.43782 6.89333 8.47C6.92762 8.50564 6.9538 8.54768 6.97021 8.59346C6.98662 8.63925 6.9929 8.68778 6.98867 8.736V10.913C6.99645 11.0058 6.96528 11.0978 6.90201 11.1687C6.83875 11.2396 6.74858 11.2836 6.65133 11.291C6.60318 11.2947 6.55474 11.2893 6.50878 11.2751C6.46282 11.2609 6.42024 11.2382 6.38347 11.2083C6.30921 11.1479 6.26311 11.0618 6.25533 10.969C6.1989 11.0668 6.11168 11.1452 6.006 11.193C5.88764 11.2494 5.75695 11.2782 5.62467 11.277ZM5.86667 10.759C5.92009 10.7596 5.97294 10.7485 6.02122 10.7267C6.0695 10.7048 6.11195 10.6728 6.14533 10.633C6.23028 10.5219 6.26944 10.3849 6.25533 10.248C6.26809 10.1112 6.22906 9.97465 6.14533 9.863C6.11057 9.82522 6.06768 9.79504 6.01959 9.7745C5.9715 9.75397 5.91935 9.74356 5.86667 9.744C5.81391 9.74309 5.7616 9.75328 5.71344 9.77385C5.66527 9.79441 5.62245 9.82485 5.588 9.863C5.50427 9.97465 5.46525 10.1112 5.478 10.248C5.46389 10.3849 5.50305 10.5219 5.588 10.633C5.62061 10.6736 5.66291 10.7063 5.71137 10.7282C5.75983 10.7501 5.81307 10.7607 5.86667 10.759Z" fill="var(--fill-0, #FFEBEE)"/>
<path d="M8.08133 11.27C8.0308 11.2756 7.97959 11.2702 7.93155 11.2543C7.8835 11.2383 7.83986 11.2122 7.80388 11.1778C7.76791 11.1435 7.74054 11.1018 7.72382 11.056C7.7071 11.0101 7.70146 10.9612 7.70733 10.913V9.8H7.59733C7.55904 9.80575 7.51988 9.80291 7.48294 9.79169C7.446 9.78047 7.41232 9.76118 7.38456 9.73536C7.35679 9.70954 7.33572 9.67789 7.32301 9.64294C7.3103 9.60799 7.3063 9.57069 7.31133 9.534C7.31133 9.359 7.40667 9.275 7.59733 9.275H7.7C7.6968 9.16273 7.71722 9.051 7.76004 8.94639C7.80287 8.84179 7.86723 8.74645 7.94933 8.666C8.13855 8.51264 8.37599 8.42395 8.624 8.414H8.74867C8.81692 8.38791 8.89308 8.38791 8.96133 8.414C9.01082 8.44092 9.04952 8.48278 9.07133 8.533C9.0822 8.58381 9.0822 8.63619 9.07133 8.687C9.06288 8.73638 9.04 8.78247 9.00533 8.82C8.97275 8.85906 8.92529 8.88423 8.87333 8.89H8.81467C8.70746 8.88541 8.6017 8.91496 8.514 8.974C8.48559 9.00289 8.46375 9.03709 8.44987 9.07444C8.43599 9.11179 8.43036 9.15147 8.43333 9.191V9.254H8.668C8.85867 9.254 8.954 9.338 8.954 9.513C8.95903 9.54969 8.95503 9.58699 8.94232 9.62194C8.92961 9.6569 8.90854 9.68854 8.88078 9.71436C8.85302 9.74018 8.81933 9.75947 8.78239 9.77069C8.74546 9.78191 8.70629 9.78475 8.668 9.779H8.43333V10.899C8.44253 10.9466 8.4401 10.9956 8.42623 11.0422C8.41237 11.0888 8.38745 11.1317 8.3534 11.1675C8.31935 11.2034 8.27709 11.2313 8.2299 11.2491C8.18272 11.2669 8.13188 11.274 8.08133 11.27Z" fill="var(--fill-0, #FFEBEE)"/>
</g>
</svg>
