<svg preserveAspectRatio="none" width="100%" height="100%" overflow="visible" style="display: block;" viewBox="0 0 13 13" fill="none" xmlns="http://www.w3.org/2000/svg">
<path id="Vector" fill-rule="evenodd" clip-rule="evenodd" d="M5.49473 0.998373C4.90435 0.998373 4.31975 1.11466 3.7743 1.34061C3.22886 1.56655 2.73326 1.89772 2.3158 2.3152C1.89833 2.73269 1.56718 3.22832 1.34126 3.77379C1.11533 4.31926 0.999042 4.9039 0.999042 5.49431C0.999042 6.08473 1.11533 6.66936 1.34126 7.21483C1.56718 7.7603 1.89833 8.25593 2.3158 8.67342C2.73326 9.0909 3.22886 9.42207 3.7743 9.64802C4.31975 9.87396 4.90435 9.99025 5.49473 9.99025C6.68706 9.99025 7.83055 9.51657 8.67366 8.67342C9.51676 7.83027 9.99042 6.68671 9.99042 5.49431C9.99042 4.30191 9.51676 3.15835 8.67366 2.3152C7.83055 1.47205 6.68706 0.998373 5.49473 0.998373ZM3.3223e-08 5.49431C0.000116536 4.61184 0.212756 3.74238 0.619931 2.95947C1.02711 2.17656 1.61684 1.50324 2.33925 0.996455C3.06165 0.489674 3.89548 0.164343 4.7702 0.047981C5.64492 -0.0683808 6.53479 0.0276497 7.36455 0.327949C8.19431 0.628249 8.93954 1.12398 9.53721 1.77322C10.1349 2.42246 10.5674 3.20609 10.7982 4.05785C11.029 4.9096 11.0513 5.80442 10.8631 6.6666C10.675 7.52878 10.282 8.33297 9.71734 9.01113L12.841 12.135C12.8901 12.1807 12.9295 12.2359 12.9568 12.2971C12.9841 12.3584 12.9987 12.4246 12.9999 12.4916C13.0011 12.5587 12.9888 12.6253 12.9636 12.6875C12.9385 12.7497 12.9011 12.8062 12.8537 12.8537C12.8063 12.9011 12.7498 12.9385 12.6876 12.9636C12.6254 12.9888 12.5587 13.0011 12.4917 12.9999C12.4246 12.9987 12.3585 12.9841 12.2972 12.9568C12.2359 12.9295 12.1808 12.8901 12.135 12.841L9.01135 9.71716C8.20894 10.3856 7.23268 10.8114 6.19694 10.9449C5.1612 11.0784 4.10887 10.9139 3.16324 10.4708C2.21761 10.0276 1.41783 9.32416 0.857599 8.4428C0.297368 7.56144 -0.000114783 6.53867 3.3223e-08 5.49431Z" fill="var(--fill-0, black)"/>
</svg>
