<svg width="12" height="14" viewBox="0 0 12 14" fill="none" xmlns="http://www.w3.org/2000/svg">
<path d="M7.82667 5.00023L7.596 11.0001M4.404 11.0001L4.17333 5.00023M8.5 2.59562C9.27584 2.65569 10.0492 2.74397 10.8187 2.86028C11.0467 2.89495 11.2733 2.93162 11.5 2.97095M10.8187 2.86028L10.1067 12.1154C10.0776 12.4922 9.90738 12.8441 9.63001 13.1008C9.35265 13.3576 8.9886 13.5001 8.61067 13.5H3.38933C3.0114 13.5001 2.64735 13.3576 2.36999 13.1008C2.09262 12.8441 1.92239 12.4922 1.89333 12.1154L1.18133 2.86028M1.18133 2.86028C0.953333 2.89428 0.726667 2.93095 0.5 2.97028M1.18133 2.86028C1.95076 2.74397 2.72416 2.65569 3.5 2.59562M8.5 2.59562V1.98497C8.5 1.19833 7.89333 0.542346 7.10667 0.51768C6.36908 0.494107 5.63092 0.494107 4.89333 0.51768C4.10667 0.542346 3.5 1.199 3.5 1.98497V2.59562M8.5 2.59562C6.83581 2.46701 5.16419 2.46701 3.5 2.59562" stroke="#F44336" stroke-linecap="round" stroke-linejoin="round"/>
</svg>
