<svg width="13" height="13" viewBox="0 0 13 13" fill="none" xmlns="http://www.w3.org/2000/svg">
<path fill-rule="evenodd" clip-rule="evenodd" d="M6.5 0C2.91 0 0 2.91 0 6.5C0 10.09 2.91 13 6.5 13C10.09 13 13 10.09 13 6.5C13 2.91 10.09 0 6.5 0ZM5.35333 4.64667C5.30756 4.59754 5.25236 4.55814 5.19103 4.53081C5.12969 4.50348 5.06348 4.48879 4.99635 4.48761C4.92921 4.48642 4.86253 4.49877 4.80027 4.52392C4.73801 4.54907 4.68145 4.5865 4.63398 4.63398C4.5865 4.68145 4.54907 4.73801 4.52392 4.80027C4.49877 4.86253 4.48642 4.92921 4.48761 4.99635C4.48879 5.06348 4.50348 5.12969 4.53081 5.19103C4.55814 5.25236 4.59754 5.30756 4.64667 5.35333L5.79333 6.5L4.64667 7.64667C4.59754 7.69244 4.55814 7.74764 4.53081 7.80897C4.50348 7.87031 4.48879 7.93652 4.48761 8.00365C4.48642 8.07079 4.49877 8.13747 4.52392 8.19973C4.54907 8.26199 4.5865 8.31855 4.63398 8.36602C4.68145 8.4135 4.73801 8.45093 4.80027 8.47608C4.86253 8.50123 4.92921 8.51358 4.99635 8.51239C5.06348 8.51121 5.12969 8.49652 5.19103 8.46919C5.25236 8.44186 5.30756 8.40246 5.35333 8.35333L6.5 7.20667L7.64667 8.35333C7.69244 8.40246 7.74764 8.44186 7.80897 8.46919C7.87031 8.49652 7.93652 8.51121 8.00365 8.51239C8.07079 8.51358 8.13747 8.50123 8.19973 8.47608C8.26199 8.45093 8.31855 8.4135 8.36602 8.36602C8.4135 8.31855 8.45093 8.26199 8.47608 8.19973C8.50123 8.13747 8.51358 8.07079 8.51239 8.00365C8.51121 7.93652 8.49652 7.87031 8.46919 7.80897C8.44186 7.74764 8.40246 7.69244 8.35333 7.64667L7.20667 6.5L8.35333 5.35333C8.40246 5.30756 8.44186 5.25236 8.46919 5.19103C8.49652 5.12969 8.51121 5.06348 8.51239 4.99635C8.51358 4.92921 8.50123 4.86253 8.47608 4.80027C8.45093 4.73801 8.4135 4.68145 8.36602 4.63398C8.31855 4.5865 8.26199 4.54907 8.19973 4.52392C8.13747 4.49877 8.07079 4.48642 8.00365 4.48761C7.93652 4.48879 7.87031 4.50348 7.80897 4.53081C7.74764 4.55814 7.69244 4.59754 7.64667 4.64667L6.5 5.79333L5.35333 4.64667Z" fill="black"/>
</svg>
