<svg width="29" height="29" viewBox="0 0 29 29" fill="none" xmlns="http://www.w3.org/2000/svg">
<path d="M12.664 22.1328L13.8273 19.4806C14.8627 17.1204 16.7262 15.2416 19.0506 14.2146L22.2528 12.7999C23.2708 12.3501 23.2708 10.8759 22.2528 10.4261L19.1506 9.0555C16.7663 8.00208 14.8695 6.05373 13.8519 3.61304L12.6735 0.786647C12.2362 -0.262217 10.7802 -0.262214 10.3429 0.786647L9.16444 3.61302C8.14682 6.05373 6.24991 8.00208 3.86568 9.0555L0.763556 10.4261C-0.254518 10.8759 -0.254519 12.3501 0.763556 12.7999L3.9657 14.2146C6.29016 15.2416 8.15363 17.1204 9.18893 19.4806L10.3523 22.1328C10.7995 23.1521 12.2168 23.1521 12.664 22.1328ZM24.3116 28.5902L24.6387 27.8439C25.222 26.5131 26.2725 25.4535 27.5832 24.8739L28.5911 24.4281C29.1363 24.1871 29.1363 23.3985 28.5911 23.1574L27.6396 22.7365C26.2951 22.142 25.2258 21.0432 24.6525 19.6672L24.3116 18.8607C24.0824 18.2987 23.3017 18.2987 23.0674 18.8607L22.7315 19.6672C22.1584 21.0432 21.0891 22.142 19.7446 22.7365L18.793 23.1574C18.2479 23.3985 18.2479 24.1871 18.793 24.4281L19.8009 24.8739C21.1117 25.4535 22.1621 26.5131 22.7453 27.8439L23.0726 28.5902C23.312 29.1366 24.0721 29.1366 24.3116 28.5902Z" fill="#4A5874"/>
</svg>
