<svg width="29" height="29" viewBox="0 0 29 29" fill="none" xmlns="http://www.w3.org/2000/svg">
<path d="M7.40909 18.0455V21.5909M12.1364 14.5V21.5909M16.8636 10.9545V21.5909M21.5909 7.40909V21.5909M5.04545 27.5H23.9545C24.8949 27.5 25.7967 27.1265 26.4616 26.4616C27.1265 25.7967 27.5 24.8949 27.5 23.9545V5.04545C27.5 4.10514 27.1265 3.20334 26.4616 2.53844C25.7967 1.87354 24.8949 1.5 23.9545 1.5H5.04545C4.10514 1.5 3.20334 1.87354 2.53844 2.53844C1.87354 3.20334 1.5 4.10514 1.5 5.04545V23.9545C1.5 24.8949 1.87354 25.7967 2.53844 26.4616C3.20334 27.1265 4.10514 27.5 5.04545 27.5Z" stroke="#182A3F" stroke-width="3" stroke-linecap="round" stroke-linejoin="round"/>
</svg>
