<svg width="32" height="32" viewBox="0 0 32 32" fill="none" xmlns="http://www.w3.org/2000/svg">
<path d="M20.5625 4.36569C21.5003 3.42789 22.7723 2.90104 24.0985 2.90104C25.4248 2.90104 26.6967 3.42789 27.6345 4.36569C28.5723 5.3035 29.0992 6.57544 29.0992 7.90169C29.0992 9.22795 28.5723 10.4999 27.6345 11.4377L25.1845 13.8857C24.9114 14.1687 24.7604 14.5477 24.764 14.941C24.7676 15.3343 24.9255 15.7104 25.2038 15.9884C25.482 16.2664 25.8583 16.424 26.2516 16.4272C26.6449 16.4304 27.0237 16.2791 27.3065 16.0057L29.7545 13.5577C31.2118 12.0489 32.0181 10.0281 31.9999 7.93049C31.9817 5.83291 31.1403 3.82641 29.6571 2.34315C28.1738 0.859881 26.1673 0.0185298 24.0697 0.000302421C21.9721 -0.0179249 19.9513 0.78843 18.4425 2.24569L12.4425 8.2457C11.6632 9.02508 11.0533 9.95708 10.6512 10.9833C10.249 12.0094 10.0632 13.1076 10.1055 14.209C10.1477 15.3103 10.4171 16.3911 10.8967 17.3834C11.3763 18.3758 12.0558 19.2583 12.8925 19.9757C13.1951 20.2284 13.5851 20.3517 13.978 20.3191C14.3709 20.2865 14.7351 20.1005 14.9919 19.8013C15.2487 19.5022 15.3775 19.114 15.3503 18.7207C15.323 18.3274 15.1421 17.9606 14.8465 17.6997C14.3229 17.2515 13.8977 16.6999 13.5974 16.0796C13.2972 15.4592 13.1284 14.7835 13.1017 14.0948C13.0751 13.4061 13.1911 12.7193 13.4424 12.0776C13.6938 11.4359 14.0752 10.853 14.5625 10.3657L20.5625 4.36569Z" fill="#5260D2"/>
<path d="M19.3043 11.8275C19.0017 11.5749 18.6117 11.4515 18.2188 11.4842C17.8259 11.5168 17.4617 11.7028 17.2049 12.0019C16.9481 12.301 16.8193 12.6893 16.8466 13.0826C16.8738 13.4759 17.0547 13.8426 17.3503 14.1035C17.8739 14.5517 18.2991 15.1033 18.5994 15.7237C18.8997 16.3441 19.0684 17.0198 19.0951 17.7085C19.1218 18.3972 19.0058 19.0839 18.7544 19.7257C18.503 20.3674 18.1217 20.9502 17.6343 21.4375L11.6343 27.4375C10.6965 28.3754 9.42456 28.9022 8.09831 28.9022C6.77205 28.9022 5.50011 28.3754 4.56231 27.4375C3.6245 26.4997 3.09765 25.2278 3.09765 23.9015C3.09765 22.5753 3.6245 21.3034 4.56231 20.3655L7.01231 17.9175C7.28541 17.6345 7.43643 17.2555 7.43283 16.8622C7.42923 16.469 7.27129 16.0928 6.99305 15.8148C6.71481 15.5368 6.33851 15.3793 5.94521 15.376C5.55191 15.3728 5.17308 15.5242 4.89031 15.7975L2.44231 18.2455C1.67822 18.9835 1.06877 19.8663 0.649495 20.8423C0.230223 21.8183 0.00953259 22.8681 0.000302054 23.9303C-0.00892848 24.9926 0.193485 26.046 0.595732 27.0292C0.997979 28.0124 1.592 28.9056 2.34315 29.6567C3.09429 30.4079 3.9875 31.0019 4.97067 31.4041C5.95385 31.8064 7.00728 32.0088 8.06952 31.9996C9.13175 31.9903 10.1815 31.7696 11.1575 31.3504C12.1336 30.9311 13.0163 30.3216 13.7543 29.5575L19.7543 23.5575C20.5336 22.7782 21.1435 21.8462 21.5456 20.82C21.9478 19.7938 22.1336 18.6956 22.0913 17.5943C22.0491 16.4929 21.7797 15.4122 21.3001 14.4198C20.8205 13.4275 20.141 12.5449 19.3043 11.8275Z" fill="#5260D2"/>
</svg>
