<svg width="27" height="33" viewBox="0 0 27 33" fill="none" xmlns="http://www.w3.org/2000/svg">
<path fill-rule="evenodd" clip-rule="evenodd" d="M26.5347 0.235374C26.6793 0.344418 26.7967 0.485492 26.8774 0.647488C26.9582 0.809483 27.0001 0.987976 27 1.16891V23.0704C26.9998 24.0863 26.6681 25.0745 26.055 25.8855C25.4419 26.6965 24.5809 27.2861 23.6022 27.5651L21.541 28.1527C21.0354 28.3041 20.5046 28.3539 19.9796 28.2989C19.4545 28.244 18.9456 28.0856 18.4824 27.8327C18.0192 27.5799 17.6109 27.2378 17.2812 26.8262C16.9516 26.4146 16.7071 25.9418 16.562 25.4352C16.417 24.9285 16.3742 24.3982 16.4361 23.8749C16.4981 23.3516 16.6635 22.8458 16.9229 22.3868C17.1823 21.9279 17.5305 21.525 17.9472 21.2014C18.3639 20.8778 18.8408 20.6401 19.3503 20.502L22.9589 19.4734C23.4482 19.3339 23.8787 19.0391 24.1853 18.6336C24.4918 18.2281 24.6577 17.734 24.6578 17.2261V8.5624L10.6044 12.5708V27.7459C10.6042 28.7618 10.2725 29.75 9.6594 30.561C9.04634 31.3719 8.18532 31.9616 7.2066 32.2406L5.14544 32.8281C4.63915 32.9817 4.1073 33.0331 3.5809 32.9794C3.05451 32.9256 2.54409 32.7678 2.07942 32.5152C1.61475 32.2625 1.20513 31.9201 0.874428 31.5078C0.543731 31.0955 0.298579 30.6216 0.153266 30.1138C0.00795385 29.606 -0.034611 29.0744 0.0280537 28.55C0.0907185 28.0256 0.257359 27.5188 0.518258 27.0594C0.779158 26.5999 1.1291 26.1969 1.54767 25.8738C1.96624 25.5507 2.44507 25.314 2.95624 25.1775L6.56327 24.1489C7.05263 24.0094 7.48314 23.7146 7.78967 23.3091C8.0962 22.9036 8.26206 22.4095 8.26217 21.9015V5.84439C8.26222 5.59041 8.34515 5.34336 8.49842 5.14062C8.65168 4.93788 8.86694 4.79048 9.11162 4.72072L25.5072 0.0452382C25.6815 -0.00462641 25.8651 -0.0134073 26.0434 0.0195875C26.2217 0.0525824 26.3899 0.126451 26.5347 0.235374Z" fill="#2F269D"/>
</svg>
