<svg width="22" height="33" viewBox="0 0 22 33" fill="none" xmlns="http://www.w3.org/2000/svg">
<path d="M5.40015 5.4C5.40015 3.96783 5.96907 2.59432 6.98177 1.58162C7.99447 0.568927 9.36798 0 10.8001 0C12.2323 0 13.6058 0.568927 14.6185 1.58162C15.6312 2.59432 16.2001 3.96783 16.2001 5.4V16.2C16.2001 17.6322 15.6312 19.0057 14.6185 20.0184C13.6058 21.0311 12.2323 21.6 10.8001 21.6C9.36798 21.6 7.99447 21.0311 6.98177 20.0184C5.96907 19.0057 5.40015 17.6322 5.40015 16.2V5.4Z" fill="#398A7C"/>
<path d="M2.7 15.5573C2.7 15.1992 2.55777 14.8559 2.30459 14.6027C2.05142 14.3495 1.70804 14.2073 1.35 14.2073C0.991958 14.2073 0.64858 14.3495 0.395406 14.6027C0.142232 14.8559 0 15.1992 0 15.5573V16.1999C0 21.7079 4.122 26.2529 9.45 26.9171V29.6999H6.75C6.39196 29.6999 6.04858 29.8421 5.79541 30.0953C5.54223 30.3485 5.4 30.6918 5.4 31.0499C5.4 31.4079 5.54223 31.7513 5.79541 32.0045C6.04858 32.2576 6.39196 32.3999 6.75 32.3999H14.85C15.208 32.3999 15.5514 32.2576 15.8046 32.0045C16.0578 31.7513 16.2 31.4079 16.2 31.0499C16.2 30.6918 16.0578 30.3485 15.8046 30.0953C15.5514 29.8421 15.208 29.6999 14.85 29.6999H12.15V26.9171C14.7601 26.5878 17.1603 25.3174 18.9002 23.3442C20.6401 21.371 21.6001 18.8306 21.6 16.1999V15.5573C21.6 15.1992 21.4578 14.8559 21.2046 14.6027C20.9514 14.3495 20.608 14.2073 20.25 14.2073C19.892 14.2073 19.5486 14.3495 19.2954 14.6027C19.0422 14.8559 18.9 15.1992 18.9 15.5573V16.1999C18.9 18.3481 18.0466 20.4084 16.5276 21.9274C15.0085 23.4465 12.9483 24.2999 10.8 24.2999C8.65175 24.2999 6.59148 23.4465 5.07243 21.9274C3.55339 20.4084 2.7 18.3481 2.7 16.1999V15.5573Z" fill="#398A7C"/>
</svg>
