<svg width="29" height="27" viewBox="0 0 29 27" fill="none" xmlns="http://www.w3.org/2000/svg">
<path d="M1.04112 2.8589e-08C0.765 2.8589e-08 0.500186 0.109409 0.304938 0.304158C0.109689 0.498908 0 0.763044 0 1.03846C0 1.31388 0.109689 1.57802 0.304938 1.77276C0.500186 1.96751 0.765 2.07692 1.04112 2.07692H2.96512C3.2011 2.07692 3.40655 2.23477 3.46763 2.46185L7.01855 15.7431C5.90326 16.0329 4.91585 16.6836 4.21099 17.5931C3.50612 18.5026 3.12361 19.6196 3.12337 20.7692C3.12337 21.3425 3.58979 21.8077 4.16449 21.8077H26.0281C26.3042 21.8077 26.569 21.6983 26.7642 21.5035C26.9595 21.3088 27.0692 21.0446 27.0692 20.7692C27.0692 20.4938 26.9595 20.2297 26.7642 20.0349C26.569 19.8402 26.3042 19.7308 26.0281 19.7308H5.3833C5.59865 19.1232 5.99758 18.5972 6.52514 18.2253C7.0527 17.8533 7.68292 17.6537 8.32898 17.6538H23.9014C24.0964 17.6539 24.2875 17.5992 24.453 17.4961C24.6184 17.3931 24.7515 17.2457 24.837 17.0709C26.4219 13.8269 27.7944 10.4839 28.946 7.06292C28.9915 6.92759 29.0085 6.78436 28.996 6.64216C28.9835 6.49997 28.9418 6.36187 28.8734 6.23648C28.805 6.1111 28.7115 6.00112 28.5986 5.91342C28.4856 5.82573 28.3558 5.76218 28.2172 5.72677C20.8958 3.86467 13.357 2.99057 5.80252 3.12785L5.48047 1.92738C5.33271 1.37456 5.00601 0.88591 4.55114 0.537367C4.09627 0.188824 3.53871 -8.48484e-05 2.96512 2.8589e-08H1.04112ZM3.12337 24.9231C3.12337 24.3722 3.34275 23.844 3.73324 23.4545C4.12374 23.065 4.65337 22.8462 5.20561 22.8462C5.75786 22.8462 6.28749 23.065 6.67798 23.4545C7.06848 23.844 7.28786 24.3722 7.28786 24.9231C7.28786 25.4739 7.06848 26.0022 6.67798 26.3917C6.28749 26.7812 5.75786 27 5.20561 27C4.65337 27 4.12374 26.7812 3.73324 26.3917C3.34275 26.0022 3.12337 25.4739 3.12337 24.9231ZM20.8224 24.9231C20.8224 24.3722 21.0418 23.844 21.4323 23.4545C21.8228 23.065 22.3524 22.8462 22.9047 22.8462C23.4569 22.8462 23.9866 23.065 24.3771 23.4545C24.7676 23.844 24.9869 24.3722 24.9869 24.9231C24.9869 25.4739 24.7676 26.0022 24.3771 26.3917C23.9866 26.7812 23.4569 27 22.9047 27C22.3524 27 21.8228 26.7812 21.4323 26.3917C21.0418 26.0022 20.8224 25.4739 20.8224 24.9231Z" fill="#ED711F"/>
</svg>
