<svg width="32" height="27" viewBox="0 0 32 27" fill="none" xmlns="http://www.w3.org/2000/svg">
<path d="M6.97839 7.73535C8.87071 4.70644 12.2046 2.7 16.0003 2.7C19.796 2.7 23.1299 4.70644 25.0223 7.73535L27.2759 6.29196C24.9153 2.51369 20.7483 0 16.0003 0C11.2524 0 7.08524 2.51369 4.72475 6.29196L6.97839 7.73535ZM16.0003 24.3C12.2046 24.3 8.87071 22.2936 6.97839 19.2646L4.72475 20.7081C7.08524 24.4863 11.2524 27 16.0003 27C20.7483 27 24.9153 24.4863 27.2759 20.7081L25.0223 19.2646C23.1299 22.2936 19.796 24.3 16.0003 24.3ZM16 8.1C16.7364 8.1 17.3333 8.70442 17.3333 9.45C17.3333 10.1956 16.7364 10.8 16 10.8C15.2636 10.8 14.6667 10.1956 14.6667 9.45C14.6667 8.70442 15.2636 8.1 16 8.1ZM16 13.5C18.2092 13.5 20 11.6868 20 9.45C20 7.21325 18.2092 5.4 16 5.4C13.7908 5.4 12 7.21325 12 9.45C12 11.6868 13.7908 13.5 16 13.5ZM16 17.55C14.5272 17.55 13.3333 18.7588 13.3333 20.25H10.6667C10.6667 17.2677 13.0545 14.85 16 14.85C18.9455 14.85 21.3333 17.2677 21.3333 20.25H18.6667C18.6667 18.7588 17.4728 17.55 16 17.55ZM4 12.15C3.26363 12.15 2.66667 12.7544 2.66667 13.5C2.66667 14.2456 3.26363 14.85 4 14.85C4.73637 14.85 5.33333 14.2456 5.33333 13.5C5.33333 12.7544 4.73637 12.15 4 12.15ZM0 13.5C0 11.2632 1.79087 9.45 4 9.45C6.20913 9.45 8 11.2632 8 13.5C8 15.7368 6.20913 17.55 4 17.55C1.79087 17.55 0 15.7368 0 13.5ZM26.6667 13.5C26.6667 12.7544 27.2636 12.15 28 12.15C28.7364 12.15 29.3333 12.7544 29.3333 13.5C29.3333 14.2456 28.7364 14.85 28 14.85C27.2636 14.85 26.6667 14.2456 26.6667 13.5ZM28 9.45C25.7908 9.45 24 11.2632 24 13.5C24 15.7368 25.7908 17.55 28 17.55C30.2092 17.55 32 15.7368 32 13.5C32 11.2632 30.2092 9.45 28 9.45Z" fill="#B35C89"/>
</svg>
